<svg xmlns="http://www.w3.org/2000/svg" viewBox="0 0 1500 500">
<rect width="1500" height="500" fill="#14130E"/>
<g opacity=".13" transform="translate(1120,40) scale(4.2)">
  <path d="M75 18 C57 24 43 33 34 44 C29 49 32 56 45 56 C57 51 68 40 75 18 Z" fill="#CCFF00"/>
  <path d="M75 18 C57 24 43 33 34 44 C29 49 32 56 45 56 C57 51 68 40 75 18 Z" fill="#CCFF00" transform="rotate(180 50 50)"/>
</g>
<g transform="translate(96,150) scale(2)">
  <rect width="100" height="100" rx="22" fill="#CCFF00"/>
  <path d="M75 18 C57 24 43 33 34 44 C29 49 32 56 45 56 C57 51 68 40 75 18 Z" fill="#14130E"/>
  <path d="M75 18 C57 24 43 33 34 44 C29 49 32 56 45 56 C57 51 68 40 75 18 Z" fill="#14130E" transform="rotate(180 50 50)"/>
</g>
<text x="330" y="252" font-family="Archivo Black, Archivo, Arial, sans-serif" font-size="82" letter-spacing="3" fill="#FFFFFF">FLETCH<tspan fill="#CCFF00">MARKET</tspan></text>
<text x="334" y="312" font-family="Archivo Black, Archivo, Arial, sans-serif" font-size="27" letter-spacing="5" fill="#CCFF00">ADVANCED TRADING ON ROBINHOOD CHAIN</text>
<text x="334" y="360" font-family="Archivo Black, Archivo, Arial, sans-serif" font-size="18" letter-spacing="4" fill="#B9B7A6" opacity=".9">LIVE MARKETS · PORTFOLIO · STOCKS · CHAIN ID 4663</text>
</svg>
